/vscmnt/brussel_pixiu_data/_data_brussel/112/vsc11236/PredSimResults/SUBJ11mtu3D/worker1.mot
version=1
nRows=5
nColumns=50
inDegrees=yes
endheader
                time	         pelvis_tilt	         pelvis_list	     pelvis_rotation	           pelvis_tx	           pelvis_ty	           pelvis_tz	       hip_flexion_r	     hip_adduction_r	      hip_rotation_r	        knee_angle_r	       ankle_angle_r	         mtp_angle_r	       hip_flexion_l	     hip_adduction_l	      hip_rotation_l	        knee_angle_l	       ankle_angle_l	         mtp_angle_l	    lumbar_extension	      lumbar_bending	     lumbar_rotation	 ercspn_r/activation	 intobl_r/activation	 extobl_r/activation	    abd_r/activation	    add_r/activation	hamstrings_r/activation	bifemsh_r/activation	glut_max_r/activation	iliopsoas_r/activation	rect_fem_r/activation	  vasti_r/activation	gastroc_r/activation	 soleus_r/activation	tib_ant_r/activation	 ercspn_l/activation	 intobl_l/activation	 extobl_l/activation	    abd_l/activation	    add_l/activation	hamstrings_l/activation	bifemsh_l/activation	glut_max_l/activation	iliopsoas_l/activation	rect_fem_l/activation	  vasti_l/activation	gastroc_l/activation	 soleus_l/activation	tib_ant_l/activation	
          1.88181909	         -5.43778063	          3.05749948	         -5.18556012	          2.07000100	          0.94460526	          0.01311786	        -11.98719814	         -3.24936541	          3.69136997	         -8.74153695	         12.57000814	         25.62835182	         31.85333333	          0.62283122	         -2.19837132	         -9.55825166	          4.73221787	          0.22989173	         -7.22632115	         -2.59961596	          3.87242671	          0.05738344	          0.01000065	          0.01000080	          0.04566894	          0.01000137	          0.01136310	          0.16239544	          0.01465580	          0.22980340	          0.01209344	          0.01000172	          0.08454496	          0.24763919	          0.01102545	          0.08895317	          0.14088112	          0.02142175	          0.01000026	          0.15714778	          0.04354730	          0.01001380	          0.07901306	          0.03213450	          0.02431001	          0.03273434	          0.01000109	          0.01000029	          0.35635958	
          1.89436456	         -5.49572766	          3.05252154	         -5.28032112	          2.08703786	          0.94291583	          0.01206176	        -12.36180343	         -3.35266337	          3.44560846	         -9.80706204	         12.00372857	         27.46547596	         31.37618725	          0.81135291	         -1.97797682	        -10.37805930	          4.38385477	          0.19309440	         -6.89095583	         -2.87486755	          4.25222279	          0.06926363	          0.01000064	          0.01000209	          0.03777137	          0.01163058	          0.01208842	          0.13431593	          0.01212296	          0.19006363	          0.01000441	          0.01000177	          0.06992460	          0.23121592	          0.01000017	          0.07357131	          0.11651920	          0.01771731	          0.02534481	          0.14044636	          0.05070823	          0.01929659	          0.11318736	          0.02657748	          0.02010626	          0.02707713	          0.01462098	          0.01462211	          0.37693484	
          1.90691002	         -5.54108559	          3.03008537	         -5.34650733	          2.10428117	          0.94152094	          0.01092367	        -12.60551573	         -3.43267502	          3.18513592	        -11.13017031	         11.29662813	         29.37584638	         30.86219686	          0.97090664	         -1.80911906	        -11.17865351	          3.91025418	          0.19567833	         -6.54068893	         -3.12885494	          4.60892575	          0.07545092	          0.01000041	          0.01000178	          0.03123954	          0.01000070	          0.01000672	          0.11109135	          0.01002731	          0.15719611	          0.01000823	          0.01000181	          0.05783249	          0.20883148	          0.01000023	          0.08113548	          0.09636959	          0.01465350	          0.08699256	          0.15756375	          0.04206891	          0.01597553	          0.12242885	          0.02198146	          0.01662951	          0.04406359	          0.01209287	          0.01209358	          0.41492225	
          1.91945548	         -5.57446741	          2.98499664	         -5.38183451	          2.12151021	          0.94060220	          0.00971816	        -12.62467083	         -3.47738868	          2.90774559	        -12.84200550	         10.42618242	         31.35577463	         30.39306268	          1.10598571	         -1.70143065	        -12.02989085	          3.29270812	          0.16298975	         -6.20076092	         -3.35808375	          4.93585541	          0.10011216	          0.01000069	          0.01000153	          0.02583726	          0.02158048	          0.02993758	          0.09188321	          0.01208759	          0.13001228	          0.01000299	          0.01000171	          0.04783147	          0.17271829	          0.01000021	          0.07582047	          0.07970439	          0.01211955	          0.11557901	          0.17977713	          0.04225604	          0.01322436	          0.11591074	          0.01818025	          0.01375408	          0.11548412	          0.01000318	          0.01000264	          0.45160110	
          1.93200094	         -5.59628147	          2.92315019	         -5.38927034	          2.13863345	          0.94025053	          0.00846228	        -12.34675882	         -3.48981358	          2.60605151	        -15.05301927	          9.39183940	         33.34491259	         29.93953337	          1.22860388	         -1.62836207	        -12.95085021	          2.86686772	          0.12283936	         -5.87681390	         -3.56874751	          5.23299473	          0.10915759	          0.01000075	          0.01000133	          0.02136920	          0.05459716	          0.03275057	          0.07600047	          0.01000231	          0.10752935	          0.01000184	          0.01000070	          0.03955993	          0.14284977	          0.01000022	          0.06581721	          0.06592112	          0.01002391	          0.13400644	          0.20007204	          0.04616674	          0.01210236	          0.11293539	          0.01503641	          0.01137614	          0.16456379	          0.01000320	          0.01000139	          0.46848161	
